<svg xmlns="http://www.w3.org/2000/svg" viewBox="0 0 800 600" role="img" aria-label="Printed PVC lay flat tubing">
<defs>
 <linearGradient id="bgP" x1="0" y1="0" x2="0" y2="1"><stop offset="0" stop-color="#071419"/><stop offset="1" stop-color="#050F15"/></linearGradient>
 <marker id="arP" viewBox="0 0 10 10" refX="8" refY="5" markerWidth="6" markerHeight="6" orient="auto-start-reverse"><path d="M0 0L10 5L0 10z" fill="#E8C08A"/></marker>
</defs>
<rect width="800" height="600" fill="url(#bgP)"/>
<g stroke="#12303A" stroke-width="1" opacity=".85"><path d="M0 150H800M0 300H800M0 450H800"/><path d="M160 0V600M320 0V600M480 0V600M640 0V600"/></g>
<defs>
 <linearGradient id="pb" x1="0" y1="0" x2="0" y2="1">
  <stop offset="0" stop-color="#A5B9C5"/><stop offset=".2" stop-color="#E4EEF2"/><stop offset=".55" stop-color="#C2D6DF"/>
  <stop offset=".85" stop-color="#E8F0F3"/><stop offset="1" stop-color="#9CB0BC"/></linearGradient>
</defs>
<ellipse cx="238" cy="312" rx="40" ry="108" fill="#3E5A66"/>
<rect x="238" y="204" width="322" height="216" fill="url(#pb)"/>
<g opacity=".92">
  <g fill="#E8C08A"><rect x="266" y="240" width="54" height="9" rx="4"/><rect x="266" y="258" width="88" height="9" rx="4"/></g>
  <g fill="#1D5FA6"><rect x="266" y="286" width="120" height="18" rx="3"/></g>
  <g fill="#5E7B85" opacity=".9"><rect x="266" y="322" width="70" height="6" rx="3"/><rect x="266" y="336" width="98" height="6" rx="3"/><rect x="266" y="350" width="56" height="6" rx="3"/></g>
  <g fill="#E8C08A"><rect x="404" y="240" width="54" height="9" rx="4"/><rect x="404" y="258" width="88" height="9" rx="4"/></g>
  <g fill="#1D5FA6"><rect x="404" y="286" width="120" height="18" rx="3"/></g>
  <g fill="#5E7B85" opacity=".9"><rect x="404" y="322" width="70" height="6" rx="3"/><rect x="404" y="336" width="98" height="6" rx="3"/><rect x="404" y="350" width="56" height="6" rx="3"/></g>
</g>
<g stroke="#9FC3CE" stroke-width="1" stroke-dasharray="6 6" opacity=".8"><path d="M390 204v216"/></g>
<ellipse cx="560" cy="312" rx="40" ry="108" fill="#E2ECF0" stroke="#9FC3CE" stroke-width="1.2"/>
<ellipse cx="560" cy="312" rx="11" ry="30" fill="#C9B48C" stroke="#A08E68" stroke-width="1.2"/>
<text x="390" y="190" font-family="monospace" font-size="11" letter-spacing="1.5" text-anchor="middle" fill="#E8C08A">REPEAT LENGTH</text>
<text x="80" y="448" font-family="monospace" font-size="11" letter-spacing="1.5" text-anchor="start" fill="#75929C">UP TO 6 COLOURS · FLEXOGRAPHIC</text>
<text x="80" y="466" font-family="monospace" font-size="11" letter-spacing="1.5" text-anchor="start" fill="#75929C">BRAND MARKS · BATCH CODES · WARNINGS</text>
<text x="760" y="566" font-family="monospace" font-size="10" letter-spacing="2" text-anchor="end" fill="#75929C">NSP · PRINTED LAY FLAT TUBING</text></svg>